<mxfile host="app.diagrams.net" modified="2023-03-08T19:56:30.203Z" agent="5.0 (Windows)" etag="kXc1fmI8jepbf_0ZkEOU" version="21.0.2" type="github">
  <diagram name="Page-1" id="iojnBKu_khQ9TId_WFPU">
    <mxGraphModel dx="1050" dy="558" grid="1" gridSize="10" guides="1" tooltips="1" connect="1" arrows="1" fold="1" page="1" pageScale="1" pageWidth="827" pageHeight="1169" math="0" shadow="0">
      <root>
        <mxCell id="0" />
        <mxCell id="1" parent="0" />
        <mxCell id="c-NuGApejOpPsOENurvR-1" value="Cliente" style="swimlane;fontStyle=1;align=center;verticalAlign=top;childLayout=stackLayout;horizontal=1;startSize=26;horizontalStack=0;resizeParent=1;resizeParentMax=0;resizeLast=0;collapsible=1;marginBottom=0;whiteSpace=wrap;html=1;" parent="1" vertex="1">
          <mxGeometry x="290" y="150" width="160" height="110" as="geometry" />
        </mxCell>
        <mxCell id="c-NuGApejOpPsOENurvR-2" value="&lt;div&gt;codCliente: int&lt;/div&gt;&lt;div&gt;nombre : String&lt;br&gt;&lt;/div&gt;&lt;div&gt;telefono: int&lt;/div&gt;&lt;div&gt;direccion: String&lt;br&gt;&lt;/div&gt;" style="text;strokeColor=none;fillColor=none;align=left;verticalAlign=top;spacingLeft=4;spacingRight=4;overflow=hidden;rotatable=0;points=[[0,0.5],[1,0.5]];portConstraint=eastwest;whiteSpace=wrap;html=1;" parent="c-NuGApejOpPsOENurvR-1" vertex="1">
          <mxGeometry y="26" width="160" height="64" as="geometry" />
        </mxCell>
        <mxCell id="c-NuGApejOpPsOENurvR-3" value="" style="line;strokeWidth=1;fillColor=none;align=left;verticalAlign=middle;spacingTop=-1;spacingLeft=3;spacingRight=3;rotatable=0;labelPosition=right;points=[];portConstraint=eastwest;strokeColor=inherit;" parent="c-NuGApejOpPsOENurvR-1" vertex="1">
          <mxGeometry y="90" width="160" height="20" as="geometry" />
        </mxCell>
        <mxCell id="c-NuGApejOpPsOENurvR-5" value="Particular" style="swimlane;fontStyle=1;align=center;verticalAlign=top;childLayout=stackLayout;horizontal=1;startSize=26;horizontalStack=0;resizeParent=1;resizeParentMax=0;resizeLast=0;collapsible=1;marginBottom=0;whiteSpace=wrap;html=1;" parent="1" vertex="1">
          <mxGeometry x="140" y="10" width="160" height="80" as="geometry" />
        </mxCell>
        <mxCell id="c-NuGApejOpPsOENurvR-6" value="&lt;div&gt;cantidadDescuento: double&lt;/div&gt;" style="text;strokeColor=none;fillColor=none;align=left;verticalAlign=top;spacingLeft=4;spacingRight=4;overflow=hidden;rotatable=0;points=[[0,0.5],[1,0.5]];portConstraint=eastwest;whiteSpace=wrap;html=1;" parent="c-NuGApejOpPsOENurvR-5" vertex="1">
          <mxGeometry y="26" width="160" height="34" as="geometry" />
        </mxCell>
        <mxCell id="c-NuGApejOpPsOENurvR-7" value="" style="line;strokeWidth=1;fillColor=none;align=left;verticalAlign=middle;spacingTop=-1;spacingLeft=3;spacingRight=3;rotatable=0;labelPosition=right;points=[];portConstraint=eastwest;strokeColor=inherit;" parent="c-NuGApejOpPsOENurvR-5" vertex="1">
          <mxGeometry y="60" width="160" height="20" as="geometry" />
        </mxCell>
        <mxCell id="c-NuGApejOpPsOENurvR-8" value="Empresa" style="swimlane;fontStyle=1;align=center;verticalAlign=top;childLayout=stackLayout;horizontal=1;startSize=26;horizontalStack=0;resizeParent=1;resizeParentMax=0;resizeLast=0;collapsible=1;marginBottom=0;whiteSpace=wrap;html=1;" parent="1" vertex="1">
          <mxGeometry x="414" y="10" width="160" height="80" as="geometry" />
        </mxCell>
        <mxCell id="c-NuGApejOpPsOENurvR-9" value="&lt;div&gt;cif : String&lt;/div&gt;&lt;div&gt;razonSocial : String&lt;br&gt;&lt;/div&gt;" style="text;strokeColor=none;fillColor=none;align=left;verticalAlign=top;spacingLeft=4;spacingRight=4;overflow=hidden;rotatable=0;points=[[0,0.5],[1,0.5]];portConstraint=eastwest;whiteSpace=wrap;html=1;" parent="c-NuGApejOpPsOENurvR-8" vertex="1">
          <mxGeometry y="26" width="160" height="34" as="geometry" />
        </mxCell>
        <mxCell id="c-NuGApejOpPsOENurvR-10" value="" style="line;strokeWidth=1;fillColor=none;align=left;verticalAlign=middle;spacingTop=-1;spacingLeft=3;spacingRight=3;rotatable=0;labelPosition=right;points=[];portConstraint=eastwest;strokeColor=inherit;" parent="c-NuGApejOpPsOENurvR-8" vertex="1">
          <mxGeometry y="60" width="160" height="20" as="geometry" />
        </mxCell>
        <mxCell id="c-NuGApejOpPsOENurvR-11" value="" style="endArrow=block;html=1;rounded=0;entryX=0.425;entryY=0;entryDx=0;entryDy=0;entryPerimeter=0;endFill=0;" parent="1" target="c-NuGApejOpPsOENurvR-1" edge="1">
          <mxGeometry width="50" height="50" relative="1" as="geometry">
            <mxPoint x="240" y="90" as="sourcePoint" />
            <mxPoint x="440" y="220" as="targetPoint" />
          </mxGeometry>
        </mxCell>
        <mxCell id="c-NuGApejOpPsOENurvR-12" value="" style="endArrow=block;html=1;rounded=0;entryX=0.663;entryY=0;entryDx=0;entryDy=0;entryPerimeter=0;endFill=0;exitX=0.5;exitY=1;exitDx=0;exitDy=0;" parent="1" source="c-NuGApejOpPsOENurvR-8" target="c-NuGApejOpPsOENurvR-1" edge="1">
          <mxGeometry width="50" height="50" relative="1" as="geometry">
            <mxPoint x="250" y="100" as="sourcePoint" />
            <mxPoint x="368" y="160" as="targetPoint" />
          </mxGeometry>
        </mxCell>
        <mxCell id="c-NuGApejOpPsOENurvR-13" value="Factura" style="swimlane;fontStyle=1;align=center;verticalAlign=top;childLayout=stackLayout;horizontal=1;startSize=26;horizontalStack=0;resizeParent=1;resizeParentMax=0;resizeLast=0;collapsible=1;marginBottom=0;whiteSpace=wrap;html=1;" parent="1" vertex="1">
          <mxGeometry x="440" y="380" width="160" height="90" as="geometry" />
        </mxCell>
        <mxCell id="c-NuGApejOpPsOENurvR-14" value="&lt;div&gt;numFactura: String&lt;/div&gt;&lt;div&gt;fechaFactura: Date&lt;br&gt;&lt;/div&gt;" style="text;strokeColor=none;fillColor=none;align=left;verticalAlign=top;spacingLeft=4;spacingRight=4;overflow=hidden;rotatable=0;points=[[0,0.5],[1,0.5]];portConstraint=eastwest;whiteSpace=wrap;html=1;" parent="c-NuGApejOpPsOENurvR-13" vertex="1">
          <mxGeometry y="26" width="160" height="44" as="geometry" />
        </mxCell>
        <mxCell id="c-NuGApejOpPsOENurvR-15" value="" style="line;strokeWidth=1;fillColor=none;align=left;verticalAlign=middle;spacingTop=-1;spacingLeft=3;spacingRight=3;rotatable=0;labelPosition=right;points=[];portConstraint=eastwest;strokeColor=inherit;" parent="c-NuGApejOpPsOENurvR-13" vertex="1">
          <mxGeometry y="70" width="160" height="20" as="geometry" />
        </mxCell>
        <mxCell id="c-NuGApejOpPsOENurvR-16" value="ArtÃ­culo" style="swimlane;fontStyle=1;align=center;verticalAlign=top;childLayout=stackLayout;horizontal=1;startSize=26;horizontalStack=0;resizeParent=1;resizeParentMax=0;resizeLast=0;collapsible=1;marginBottom=0;whiteSpace=wrap;html=1;" parent="1" vertex="1">
          <mxGeometry x="110" y="380" width="160" height="120" as="geometry" />
        </mxCell>
        <mxCell id="c-NuGApejOpPsOENurvR-17" value="&lt;div&gt;CodArticulo: int&lt;/div&gt;&lt;div&gt;denominacion : String&lt;/div&gt;&lt;div&gt;pvp : double&lt;/div&gt;&lt;div&gt;stockAlmacen : int&lt;br&gt;&lt;/div&gt;" style="text;strokeColor=none;fillColor=none;align=left;verticalAlign=top;spacingLeft=4;spacingRight=4;overflow=hidden;rotatable=0;points=[[0,0.5],[1,0.5]];portConstraint=eastwest;whiteSpace=wrap;html=1;" parent="c-NuGApejOpPsOENurvR-16" vertex="1">
          <mxGeometry y="26" width="160" height="74" as="geometry" />
        </mxCell>
        <mxCell id="c-NuGApejOpPsOENurvR-18" value="" style="line;strokeWidth=1;fillColor=none;align=left;verticalAlign=middle;spacingTop=-1;spacingLeft=3;spacingRight=3;rotatable=0;labelPosition=right;points=[];portConstraint=eastwest;strokeColor=inherit;" parent="c-NuGApejOpPsOENurvR-16" vertex="1">
          <mxGeometry y="100" width="160" height="20" as="geometry" />
        </mxCell>
        <mxCell id="c-NuGApejOpPsOENurvR-19" value="LineaFactura" style="swimlane;fontStyle=1;align=center;verticalAlign=top;childLayout=stackLayout;horizontal=1;startSize=26;horizontalStack=0;resizeParent=1;resizeParentMax=0;resizeLast=0;collapsible=1;marginBottom=0;whiteSpace=wrap;html=1;" parent="1" vertex="1">
          <mxGeometry x="290" y="560" width="160" height="90" as="geometry" />
        </mxCell>
        <mxCell id="c-NuGApejOpPsOENurvR-20" value="&lt;div&gt;codLinea : int&lt;/div&gt;&lt;div&gt;unidadesVendidas : int&lt;br&gt;&lt;/div&gt;" style="text;strokeColor=none;fillColor=none;align=left;verticalAlign=top;spacingLeft=4;spacingRight=4;overflow=hidden;rotatable=0;points=[[0,0.5],[1,0.5]];portConstraint=eastwest;whiteSpace=wrap;html=1;" parent="c-NuGApejOpPsOENurvR-19" vertex="1">
          <mxGeometry y="26" width="160" height="44" as="geometry" />
        </mxCell>
        <mxCell id="c-NuGApejOpPsOENurvR-21" value="" style="line;strokeWidth=1;fillColor=none;align=left;verticalAlign=middle;spacingTop=-1;spacingLeft=3;spacingRight=3;rotatable=0;labelPosition=right;points=[];portConstraint=eastwest;strokeColor=inherit;" parent="c-NuGApejOpPsOENurvR-19" vertex="1">
          <mxGeometry y="70" width="160" height="20" as="geometry" />
        </mxCell>
        <mxCell id="c-NuGApejOpPsOENurvR-25" value="" style="endArrow=open;html=1;endSize=12;startArrow=diamondThin;startSize=14;startFill=1;edgeStyle=orthogonalEdgeStyle;rounded=0;" parent="1" edge="1">
          <mxGeometry relative="1" as="geometry">
            <mxPoint x="510" y="470" as="sourcePoint" />
            <mxPoint x="450" y="618" as="targetPoint" />
            <Array as="points">
              <mxPoint x="510" y="618" />
            </Array>
            <mxPoint as="offset" />
          </mxGeometry>
        </mxCell>
        <mxCell id="c-NuGApejOpPsOENurvR-26" value="1" style="edgeLabel;resizable=0;html=1;align=left;verticalAlign=top;" parent="c-NuGApejOpPsOENurvR-25" connectable="0" vertex="1">
          <mxGeometry x="-1" relative="1" as="geometry">
            <mxPoint x="10" y="10" as="offset" />
          </mxGeometry>
        </mxCell>
        <mxCell id="c-NuGApejOpPsOENurvR-27" value="0..*" style="edgeLabel;resizable=0;html=1;align=right;verticalAlign=top;" parent="c-NuGApejOpPsOENurvR-25" connectable="0" vertex="1">
          <mxGeometry x="1" relative="1" as="geometry">
            <mxPoint x="30" as="offset" />
          </mxGeometry>
        </mxCell>
        <mxCell id="c-NuGApejOpPsOENurvR-28" value="" style="endArrow=open;html=1;endSize=12;startArrow=diamondThin;startSize=14;startFill=0;edgeStyle=orthogonalEdgeStyle;rounded=0;exitX=0;exitY=0.5;exitDx=0;exitDy=0;" parent="1" edge="1" source="c-NuGApejOpPsOENurvR-20">
          <mxGeometry relative="1" as="geometry">
            <mxPoint x="100" y="690" as="sourcePoint" />
            <mxPoint x="180" y="500" as="targetPoint" />
            <mxPoint as="offset" />
            <Array as="points">
              <mxPoint x="180" y="608" />
            </Array>
          </mxGeometry>
        </mxCell>
        <mxCell id="c-NuGApejOpPsOENurvR-29" value="1..*" style="edgeLabel;resizable=0;html=1;align=left;verticalAlign=top;" parent="c-NuGApejOpPsOENurvR-28" connectable="0" vertex="1">
          <mxGeometry x="-1" relative="1" as="geometry">
            <mxPoint x="-30" as="offset" />
          </mxGeometry>
        </mxCell>
        <mxCell id="c-NuGApejOpPsOENurvR-30" value="1" style="edgeLabel;resizable=0;html=1;align=right;verticalAlign=top;" parent="c-NuGApejOpPsOENurvR-28" connectable="0" vertex="1">
          <mxGeometry x="1" relative="1" as="geometry">
            <mxPoint x="-10" y="10" as="offset" />
          </mxGeometry>
        </mxCell>
        <mxCell id="c-NuGApejOpPsOENurvR-37" value="" style="endArrow=none;startArrow=none;endFill=0;startFill=0;endSize=8;html=1;verticalAlign=bottom;labelBackgroundColor=none;strokeWidth=2;rounded=0;exitX=0.556;exitY=-0.011;exitDx=0;exitDy=0;exitPerimeter=0;" parent="1" source="c-NuGApejOpPsOENurvR-13" edge="1">
          <mxGeometry width="160" relative="1" as="geometry">
            <mxPoint x="193" y="388" as="sourcePoint" />
            <mxPoint x="380" y="260" as="targetPoint" />
          </mxGeometry>
        </mxCell>
        <mxCell id="c-NuGApejOpPsOENurvR-38" value="1" style="text;strokeColor=none;align=center;fillColor=none;html=1;verticalAlign=middle;whiteSpace=wrap;rounded=0;" parent="1" vertex="1">
          <mxGeometry x="399" y="260" width="30" height="20" as="geometry" />
        </mxCell>
        <mxCell id="c-NuGApejOpPsOENurvR-40" value="0..*" style="text;strokeColor=none;align=center;fillColor=none;html=1;verticalAlign=middle;whiteSpace=wrap;rounded=0;" parent="1" vertex="1">
          <mxGeometry x="520" y="360" width="30" height="20" as="geometry" />
        </mxCell>
      </root>
    </mxGraphModel>
  </diagram>
</mxfile>
